<svg width="83" height="83" viewBox="0 0 83 83" fill="none" xmlns="http://www.w3.org/2000/svg">
<path d="M41.5 5.1875C34.3672 5.1875 28.5312 11.0234 28.5312 18.1562C28.5312 23.2322 31.4181 28.207 34.1234 32.2611C34.4683 32.7876 34.8341 33.2311 35.1764 33.7188H20.75V41.9046L23.7484 41.5L38.6624 39.3913L36.3125 75.0579L36.1491 77.8125H46.8509L46.6875 75.0553L44.3376 39.3913L59.2516 41.5L62.25 41.9046V33.7188H47.821C48.1659 33.2311 48.5317 32.785 48.8766 32.2585C51.5819 28.2096 54.4688 23.2322 54.4688 18.1562C54.4688 11.0234 48.6328 5.1875 41.5 5.1875ZM41.5 10.375C45.8264 10.375 49.2812 13.8299 49.2812 18.1562C49.2812 20.9523 46.9806 25.7144 44.4984 29.4235C42.9888 31.693 42.4519 32.2403 41.5 33.3945C40.5481 32.2403 40.0112 31.693 38.5016 29.4235C36.0194 25.7144 33.7188 20.9523 33.7188 18.1562C33.7188 13.8299 37.1736 10.375 41.5 10.375Z" fill="white"/>
</svg>
