<svg width="62" height="63" viewBox="0 0 62 63" fill="none" xmlns="http://www.w3.org/2000/svg">
<g clip-path="url(#clip0_12_20)">
<path d="M0 46.0331L5.23706 55.0851C5.75779 56.1215 6.55614 56.993 7.54311 57.6023C8.53007 58.2116 9.66687 58.5347 10.8267 58.5358H45.5913L38.3761 46.0331H0ZM62 46.0932C61.9973 44.8907 61.6504 43.7141 61.0002 42.7026L40.6255 7.29281C40.0943 6.2869 39.2985 5.44509 38.3241 4.85816C37.3496 4.27124 36.2334 3.96146 35.0959 3.96225H24.3292L55.7942 58.4738L60.76 49.8868C61.7288 48.2419 62.0019 47.5153 62.0019 46.0932H62ZM33.2494 37.1536L19.1929 12.8031L5.12663 37.1536H33.2494Z" fill="#5E0008"/>
</g>
<defs>
<clipPath id="clip0_12_20">
<rect width="62" height="62" fill="white" transform="translate(0 0.25)"/>
</clipPath>
</defs>
</svg>
