<svg width="62" height="63" viewBox="0 0 62 63" fill="none" xmlns="http://www.w3.org/2000/svg">
<path d="M31 1.01725C13.8744 1.01725 0 14.9033 0 32.0172C0 45.7212 8.8815 57.3365 21.1904 61.4343C22.7463 61.7269 23.3081 60.7678 23.3081 59.9386C23.3081 59.2023 23.2907 57.2551 23.2791 54.6705C14.6514 56.5382 12.834 50.5029 12.834 50.5029C11.4216 46.9302 9.38331 45.9711 9.38331 45.9711C6.57781 44.0549 9.60612 44.0956 9.60612 44.0956C12.7139 44.3068 14.3491 47.2828 14.3491 47.2828C17.1139 52.0258 21.6031 50.6541 23.3798 49.8558C23.6511 47.8582 24.459 46.4846 25.3386 45.7192C18.4566 44.9423 11.2201 42.2782 11.2201 30.3994C11.2201 27.0069 12.4213 24.244 14.4072 22.074C14.0643 21.2971 13.0142 18.1389 14.6804 13.8687C14.6804 13.8687 17.2747 13.0414 23.2054 17.0481C25.7318 16.361 28.3374 16.0086 30.9554 15.9999C33.5904 16.0174 36.2235 16.3622 38.7054 17.0481C44.6012 13.0414 47.1936 13.8687 47.1936 13.8687C48.8579 18.1389 47.8078 21.2951 47.5056 22.074C49.4721 24.244 50.6734 27.0088 50.6734 30.3994C50.6734 42.3054 43.4271 44.9307 36.5374 45.6882C37.6146 46.6163 38.6241 48.5247 38.6241 51.4213C38.6241 55.5676 38.5853 58.9078 38.5853 59.9172C38.5853 60.7232 39.1278 61.692 40.7243 61.3801C53.1243 57.3249 61.9961 45.6999 61.9961 32.0153C61.9961 14.9014 48.1217 1.01531 30.9961 1.01531L31 1.01725Z" fill="#5E0008"/>
</svg>
