<svg width="62" height="72" viewBox="0 0 62 72" fill="none" xmlns="http://www.w3.org/2000/svg">
<g clip-path="url(#clip0_12_24)">
<path d="M31 28.2967C29.5401 28.2972 28.1132 28.7306 26.8996 29.5421C25.686 30.3536 24.7403 31.5067 24.182 32.8556C23.6237 34.2045 23.4779 35.6886 23.7631 37.1204C24.0482 38.5522 24.7515 39.8672 25.784 40.8993C26.8165 41.9314 28.1318 42.6342 29.5637 42.9188C30.9955 43.2034 32.4796 43.0571 33.8283 42.4983C35.177 41.9395 36.3298 40.9933 37.1408 39.7794C37.9518 38.5656 38.3846 37.1385 38.3846 35.6786C38.3832 33.7207 37.6046 31.8436 36.2199 30.4594C34.8353 29.0753 32.9578 28.2974 31 28.2967ZM48.259 22.6226C47.8832 21.6702 47.3157 20.8052 46.5917 20.0813C45.8678 19.3573 45.0028 18.7899 44.0504 18.4141C41.1442 17.2668 34.2246 17.5242 31 17.5242C27.7754 17.5242 20.8627 17.2571 17.9482 18.4141C16.9958 18.7899 16.1308 19.3573 15.4069 20.0813C14.6829 20.8052 14.1154 21.6702 13.7396 22.6226C12.5937 25.5288 12.8498 32.4554 12.8498 35.6772C12.8498 38.899 12.5937 45.8172 13.7452 48.7332C14.121 49.6855 14.6885 50.5505 15.4124 51.2745C16.1364 51.9984 17.0013 52.5659 17.9537 52.9417C20.86 54.089 27.7796 53.8316 31.0055 53.8316C34.2315 53.8316 41.1414 54.0987 44.056 52.9417C45.0083 52.5659 45.8733 51.9984 46.5973 51.2745C47.3212 50.5505 47.8887 49.6855 48.2645 48.7332C49.4201 45.8269 49.1544 38.9004 49.1544 35.6786C49.1544 32.4568 49.4201 25.5399 48.2645 22.624L48.259 22.6226ZM31 47.0268C28.7555 47.0268 26.5615 46.3612 24.6953 45.1143C22.8291 43.8673 21.3745 42.095 20.5156 40.0213C19.6567 37.9477 19.432 35.666 19.8698 33.4646C20.3077 31.2633 21.3885 29.2412 22.9756 27.6542C24.5627 26.0671 26.5847 24.9863 28.7861 24.5484C30.9874 24.1105 33.2692 24.3353 35.3428 25.1942C37.4164 26.0531 39.1887 27.5076 40.4357 29.3738C41.6827 31.24 42.3482 33.4341 42.3482 35.6786C42.35 37.1694 42.0577 38.6458 41.4881 40.0235C40.9184 41.4011 40.0826 42.6529 39.0285 43.707C37.9743 44.7612 36.7226 45.597 35.3449 46.1667C33.9673 46.7363 32.4908 47.0286 31 47.0268ZM42.816 26.5031C42.292 26.5034 41.7798 26.3483 41.344 26.0574C40.9082 25.7665 40.5685 25.3529 40.3678 24.8689C40.1671 24.3849 40.1144 23.8523 40.2165 23.3384C40.3185 22.8245 40.5707 22.3523 40.9411 21.9818C41.3115 21.6112 41.7835 21.3588 42.2973 21.2564C42.8112 21.1541 43.3439 21.2065 43.8279 21.4069C44.312 21.6074 44.7258 21.9469 45.0169 22.3825C45.308 22.8182 45.4634 23.3303 45.4634 23.8543C45.4649 24.2022 45.3976 24.547 45.2655 24.8689C45.1334 25.1908 44.9391 25.4834 44.6936 25.7301C44.4482 25.9767 44.1565 26.1724 43.8352 26.306C43.5139 26.4396 43.1695 26.5085 42.8215 26.5087L42.816 26.5031ZM55.3571 4.67857H6.64286C4.88106 4.67857 3.19143 5.37844 1.94565 6.62422C0.69987 7.87 0 9.55964 0 11.3214L0 60.0357C0 61.7975 0.69987 63.4871 1.94565 64.7329C3.19143 65.9787 4.88106 66.6786 6.64286 66.6786H55.3571C57.1189 66.6786 58.8086 65.9787 60.0544 64.7329C61.3001 63.4871 62 61.7975 62 60.0357V11.3214C62 9.55964 61.3001 7.87 60.0544 6.62422C58.8086 5.37844 57.1189 4.67857 55.3571 4.67857ZM52.9879 44.8125C52.8093 48.3595 51.9997 51.5024 49.4104 54.0848C46.8211 56.6672 43.6809 57.4934 40.1381 57.6623C36.4831 57.8685 25.5252 57.8685 21.8702 57.6623C18.3232 57.4837 15.1914 56.6728 12.5979 54.0848C10.0044 51.4969 9.18929 48.3526 9.02045 44.8125C8.81424 41.1562 8.81424 30.1968 9.02045 26.5446C9.19897 22.9976 9.99888 19.8547 12.5979 17.2723C15.1969 14.6899 18.3371 13.8734 21.8702 13.7046C25.5252 13.4984 36.4831 13.4984 40.1381 13.7046C43.6851 13.8831 46.8266 14.6941 49.4104 17.282C51.9942 19.87 52.819 23.0142 52.9879 26.5613C53.1941 30.2038 53.1941 41.1534 52.9879 44.8125Z" fill="#5E0008"/>
</g>
<defs>
<clipPath id="clip0_12_24">
<rect width="62" height="70.8571" fill="white" transform="translate(0 0.25)"/>
</clipPath>
</defs>
</svg>
