<svg width="62" height="63" viewBox="0 0 62 63" fill="none" xmlns="http://www.w3.org/2000/svg">
<g clip-path="url(#clip0_12_12)">
<path d="M51.6667 19.7057C50.1597 20.3785 48.5317 20.8359 46.7826 21.0781C48.6124 20.0017 49.8637 18.4275 50.5365 16.3555C48.7873 17.378 46.9844 18.0642 45.1276 18.4141C43.4861 16.638 41.4275 15.75 38.9518 15.75C36.6107 15.75 34.6126 16.5775 32.9577 18.2324C31.3027 19.8874 30.4753 21.8854 30.4753 24.2266C30.4753 25.0069 30.5425 25.6528 30.6771 26.1641C27.2057 25.9757 23.9497 25.1011 20.9089 23.5404C17.8681 21.9796 15.2847 19.8941 13.1589 17.2839C12.3785 18.6293 11.9883 20.0556 11.9883 21.5625C11.9883 24.6302 13.2127 26.9848 15.6615 28.6263C14.3967 28.5994 13.0512 28.2496 11.625 27.5768V27.6576C11.625 29.6758 12.2977 31.472 13.6432 33.0462C14.9887 34.6204 16.6437 35.5959 18.6081 35.9727C17.8277 36.1879 17.1415 36.2956 16.5495 36.2956C16.1997 36.2956 15.6749 36.2418 14.9753 36.1341C15.5404 37.8294 16.5428 39.2287 17.9824 40.332C19.4221 41.4353 21.0569 42.0004 22.8867 42.0273C19.7652 44.4492 16.2535 45.6602 12.3516 45.6602C11.6519 45.6602 10.9792 45.6198 10.3333 45.5391C14.316 48.0686 18.6484 49.3333 23.3307 49.3333C26.3446 49.3333 29.1701 48.8557 31.8073 47.9004C34.4444 46.9451 36.7049 45.6669 38.5885 44.0658C40.4722 42.4646 42.0935 40.6213 43.4525 38.5358C44.8114 36.4503 45.8205 34.2706 46.4798 31.9967C47.1391 29.7229 47.4688 27.4557 47.4688 25.1953C47.4688 24.7109 47.4553 24.3477 47.4284 24.1055C49.1237 22.8945 50.5365 21.4279 51.6667 19.7057ZM62 11.875V50.625C62 53.8273 60.8631 56.5653 58.5892 58.8392C56.3153 61.1131 53.5773 62.25 50.375 62.25H11.625C8.42274 62.25 5.68468 61.1131 3.41081 58.8392C1.13694 56.5653 0 53.8273 0 50.625V11.875C0 8.67274 1.13694 5.93468 3.41081 3.66081C5.68468 1.38694 8.42274 0.25 11.625 0.25H50.375C53.5773 0.25 56.3153 1.38694 58.5892 3.66081C60.8631 5.93468 62 8.67274 62 11.875Z" fill="#5E0008"/>
</g>
<defs>
<clipPath id="clip0_12_12">
<rect width="62" height="62" fill="white" transform="translate(0 0.25)"/>
</clipPath>
</defs>
</svg>
