<svg width="62" height="62" viewBox="0 0 62 62" fill="none" xmlns="http://www.w3.org/2000/svg">
<path d="M15.5336 34.9247H18.0479V47.3585H20.4589V34.9247H22.9732V32.8237H15.5336V34.9247ZM28.2429 44.7753C27.8296 45.2575 26.4174 46.2219 26.4174 44.8442V36.6124H24.282V45.6019C24.282 48.3229 27.0029 47.5996 28.2773 46.1874V47.3585H30.4127V36.6124H28.2773V44.7753H28.2429ZM36.1991 36.5435C34.9592 36.5435 34.167 37.4735 34.167 37.4735V32.7893H31.9971V47.3585H34.167V46.5319C34.167 46.5319 34.8903 47.4963 36.1991 47.4963C37.3357 47.4963 38.1968 46.4974 38.1968 45.1197V39.1612C38.1968 37.5424 37.439 36.5435 36.1991 36.5435ZM35.958 44.8442C35.958 45.6364 35.4069 46.0152 34.6836 45.7052C34.4883 45.6139 34.3128 45.4852 34.167 45.3264V38.6445C34.3048 38.5068 34.477 38.4034 34.6147 38.3001C35.3725 37.9212 35.958 38.5067 35.958 39.2989V44.8442ZM43.9142 44.2931C43.9142 45.1197 43.4665 45.6708 42.9498 45.7052C42.3987 45.7397 41.8477 45.2919 41.8477 44.2931V42.261H45.9463V39.5056C45.9569 39.086 45.883 38.6686 45.7292 38.2781C45.5754 37.8876 45.3447 37.532 45.0508 37.2324C44.4584 36.6919 43.6828 36.3965 42.8809 36.4058C42.1232 36.4058 41.331 36.6469 40.7111 37.129C40.0567 37.6457 39.6433 38.4379 39.6433 39.5056V44.3275C39.6433 45.2919 39.9533 46.0497 40.4355 46.6007C41.021 47.2207 41.8132 47.5651 42.6398 47.5996C43.6387 47.634 44.7064 47.2207 45.3264 46.3596C45.7052 45.843 45.9463 45.1542 45.9463 44.3275V43.7765H43.9142V44.2931ZM41.8477 39.5056C41.8477 38.9201 42.1921 38.2312 42.8465 38.2312C43.5009 38.2312 43.9142 38.8512 43.9142 39.5056V40.6077H41.8477V39.5056Z" fill="#5E0008"/>
<path d="M30.9983 4.78779e-08C26.9273 0.00022614 22.8962 0.802288 19.1352 2.36039C15.3742 3.9185 11.9569 6.20213 9.07847 9.08091C6.20002 11.9597 3.91676 15.3772 2.35907 19.1384C0.801388 22.8996 -0.000226105 26.9307 4.78386e-08 31.0017C0.000226201 35.0727 0.802289 39.1038 2.36039 42.8648C3.9185 46.6258 6.20213 50.0431 9.08091 52.9215C11.9597 55.8 15.3772 58.0832 19.1384 59.6409C22.8996 61.1986 26.9307 62.0002 31.0017 62C39.2234 61.9995 47.1082 58.733 52.9215 52.9191C58.7348 47.1051 62.0005 39.22 62 30.9983C61.9995 22.7766 58.733 14.8918 52.9191 9.07847C47.1051 3.26517 39.22 -0.000456566 30.9983 4.78779e-08ZM36.4402 11.6071H39.1956V20.8377C39.1956 21.4233 39.4711 21.4233 39.5745 21.4233C39.9878 21.4233 40.6077 20.9755 40.9177 20.6655V11.5727H43.6731V23.7653H40.9177V22.6976C40.5389 23.0421 40.16 23.3176 39.7811 23.5243C39.2645 23.7998 38.7823 23.9031 38.3001 23.9031C38.0361 23.9158 37.7726 23.8698 37.5284 23.7686C37.2843 23.6674 37.0655 23.5133 36.888 23.3176C36.578 22.9387 36.4402 22.3532 36.4402 21.6299V11.6071ZM27.6574 14.8103C27.6574 12.9159 29.2073 11.366 31.1016 11.366C32.9959 11.366 34.5459 12.9159 34.5459 14.8103V20.6655C34.5459 22.5599 32.9959 24.1098 31.1016 24.1098C29.2073 24.1098 27.6574 22.5599 27.6574 20.6655V14.8103ZM20.4933 7.40514L22.1465 13.467L23.8342 7.40514H26.9685L23.7309 16.9802V23.7653H20.6655V16.9802L17.359 7.40514H20.4933ZM47.7029 50.5961C45.9463 52.3182 31.0672 52.3526 31.0672 52.3526C31.0672 52.3526 16.2224 52.3182 14.4314 50.5961C12.6749 48.874 12.6749 40.2978 12.6749 40.2289C12.6749 40.1944 12.6749 31.6182 14.4314 29.8617C16.188 28.1395 31.0672 28.1051 31.0672 28.1051C31.0672 28.1051 45.9119 28.1395 47.7029 29.8617C49.4595 31.5838 49.4939 40.16 49.4939 40.2289C49.4939 40.2289 49.4939 48.8395 47.7029 50.5961Z" fill="#5E0008"/>
<path d="M31.0327 21.871C31.6183 21.871 31.8938 21.5266 31.9282 20.9755V14.4314C31.9282 13.9837 31.4805 13.6048 31.0672 13.6048C30.6539 13.6048 30.2061 13.9492 30.2061 14.4314V20.9755C30.2061 21.4922 30.4472 21.8366 31.0327 21.871Z" fill="#5E0008"/>
</svg>
